<svg id="Layer_1" data-name="Layer 1" xmlns="http://www.w3.org/2000/svg" viewBox="0 0 448 394.46"><defs><style>.cls-1{fill:#231f20;}</style></defs><title>fa-airship</title><path class="cls-1" d="M160.33,393.25l-25.49-14.71a30.75,30.75,0,0,1-14.79-20.72l-9.6-49c-12.88-21.43-27-61.17-27-61.17L3.11,386.75A23,23,0,0,0,23,421.23H149a8.42,8.42,0,0,0,7.29-4.21l11.88-20.58A30.75,30.75,0,0,1,160.33,393.25Z" transform="translate(0 -26.77)"/><path class="cls-1" d="M244.13,38.26a23,23,0,0,0-39.81,0L104.86,210.52A22.07,22.07,0,0,1,117,202.21c32.44-8.67,97.38-20,148.07,9.24,25.9,15,44.48,38.44,57.62,62.15h52.58a8.23,8.23,0,0,1,6.5,3.07Z" transform="translate(0 -26.77)"/><path class="cls-1" d="M445.33,386.75,383,278.83a8.29,8.29,0,0,1-1.85,8.79l-32.49,33.5L448,394A23.19,23.19,0,0,0,445.33,386.75Z" transform="translate(0 -26.77)"/><path class="cls-1" d="M212.89,301.45c-46.44-26.81-83.26-60.66-109.2-88.91l-1.89,3.28c-2.34,4.05-1.71,8.81-.48,13.38,4.88,18.17,14.14,45.61,30.26,71.36l10.37,53a8.43,8.43,0,0,0,4.05,5.67l25.49,14.72A8.41,8.41,0,0,0,183,370.87l8.11-14C215,368.47,241.45,372,265.85,371.53L292.13,417a8.41,8.41,0,0,0,15.38-1.91L322,364.26c3.31-.77,6.41-1.55,9.26-2.31a22.07,22.07,0,0,0,13.46-10.34C307.24,343.29,259.42,328.31,212.89,301.45Z" transform="translate(0 -26.77)"/><path class="cls-1" d="M433.05,419.91,340.87,379.4,329,421.22h96.46A23,23,0,0,0,433.05,419.91Z" transform="translate(0 -26.77)"/></svg>