<svg id="Layer_1" data-name="Layer 1" xmlns="http://www.w3.org/2000/svg" viewBox="0 0 364.32 448"><title>fa-katacontainers</title><path d="M376.57,265.84,224,418.41,71.43,265.84l27-27L224,364.32,349.52,238.79Zm-81.3-2.38-39.69-39.68L295,184.31,334.73,224Zm-60.82-31.22,46,46-46,46Zm-20.92,92L113.27,224,213.53,123.72Zm20.92-200.56,45.8,45.81-45.8,45.79Zm-163,58.44L224,29.59,376.57,182.16l-27.05,27.05L224,83.68,98.47,209.21Zm334.73,0L224,0,41.84,182.16,83.68,224,41.84,265.84,224,448,406.16,265.84,364.31,224Z" transform="translate(-41.84)"/></svg>