<svg id="Layer_1" data-name="Layer 1" xmlns="http://www.w3.org/2000/svg" viewBox="0 0 448 438.47"><title>fa-openstack</title><path d="M406.16,4.77H41.83A41.92,41.92,0,0,0,0,46.6v98H101.14V128.68a22.38,22.38,0,0,1,22.24-22.24h200.7a22.37,22.37,0,0,1,22.24,22.24v15.89H447.47v-98C447.47,23.83,428.93,4.77,406.16,4.77Z" transform="translate(0 -4.77)"/><path d="M346.32,319.32a22.37,22.37,0,0,1-22.24,22.24H123.38a22.38,22.38,0,0,1-22.24-22.24V303.43H0v98a41.92,41.92,0,0,0,41.83,41.83H406.16A41.92,41.92,0,0,0,448,401.4v-98H346.32Z" transform="translate(0 -4.77)"/><rect y="168.93" width="101.14" height="101.14"/><rect x="346.32" y="168.93" width="101.14" height="101.14"/></svg>