<svg id="Layer_1" data-name="Layer 1" xmlns="http://www.w3.org/2000/svg" viewBox="0 0 448 390.92"><title>fa-starlingx</title><polygon points="212.04 76.31 154.81 0 0 0 134.64 179.52 212.04 76.31"/><path d="M199.4,294.41l93.78,125H448L312.65,239C282.91,270.18,239.62,291.59,199.4,294.41Z" transform="translate(0 -28.54)"/><path d="M346.46,28.54c-53.29,0-78.6,33.76-78.6,33.76L151,218.09c69.48-.42,83.45-11.16,126-66.16l8.89-12a47.2,47.2,0,0,1,37.94-19.13l-31.58,42.68C246,223.29,227,237.24,146.48,237.24c-3.37,0-6.6,0-9.76-.08L0,419.46H33.54c25.56,0,56.76-13.59,72.89-33.41l82.84-110.44h1.19c42.82,0,93-26.55,120.23-64l84.76-113C419.7,68.27,448,54.44,448,54.44,425.2,45,390.51,40,390.51,40,377.12,28.54,346.46,28.54,346.46,28.54Z" transform="translate(0 -28.54)"/></svg>